<?xml version="1.0" encoding="UTF-8" standalone="no"?>
<svg
   xmlns:dc="http://purl.org/dc/elements/1.1/"
   xmlns:cc="http://creativecommons.org/ns#"
   xmlns:rdf="http://www.w3.org/1999/02/22-rdf-syntax-ns#"
   xmlns:svg="http://www.w3.org/2000/svg"
   xmlns="http://www.w3.org/2000/svg"
   xmlns:sodipodi="http://sodipodi.sourceforge.net/DTD/sodipodi-0.dtd"
   xmlns:inkscape="http://www.inkscape.org/namespaces/inkscape"
   width="1200"
   height="800"
   data-name="Layer 1"
   version="1.1"
   viewBox="0 0 1200 800"
   id="svg298"
   sodipodi:docname="awesome-bitcoin-cash.dark.svg"
   inkscape:version="1.0.2 (e86c870879, 2021-01-15)">
  <metadata
     id="metadata302">
    <rdf:RDF>
      <cc:Work
         rdf:about="">
        <dc:format>image/svg+xml</dc:format>
        <dc:type
           rdf:resource="http://purl.org/dc/dcmitype/StillImage" />
      </cc:Work>
    </rdf:RDF>
  </metadata>
  <sodipodi:namedview
     pagecolor="#ffffff"
     bordercolor="#666666"
     borderopacity="1"
     objecttolerance="10"
     gridtolerance="10"
     guidetolerance="10"
     inkscape:pageopacity="0"
     inkscape:pageshadow="2"
     inkscape:window-width="1920"
     inkscape:window-height="1176"
     id="namedview300"
     showgrid="false"
     inkscape:zoom="1.0641667"
     inkscape:cx="666.05613"
     inkscape:cy="406.60561"
     inkscape:window-x="0"
     inkscape:window-y="0"
     inkscape:window-maximized="1"
     inkscape:current-layer="svg298" />
  <defs
     id="defs42">
    <style
       id="style2">.cls-1{fill:#f7941d}.cls-2{fill:#fff}</style>
    <filter
       id="filter4593"
       x="-.060581"
       y="-.45678"
       width="1.1212"
       height="1.9136"
       color-interpolation-filters="sRGB">
      <feGaussianBlur
         stdDeviation="0.42839727"
         id="feGaussianBlur4" />
    </filter>
    <filter
       id="filter4633"
       x="-.13507"
       y="-.088696"
       width="1.2701"
       height="1.1774"
       color-interpolation-filters="sRGB">
      <feGaussianBlur
         stdDeviation="0.083185004"
         id="feGaussianBlur7" />
    </filter>
    <filter
       id="filter4769"
       x="-.012"
       y="-.012"
       width="1.024"
       height="1.024"
       color-interpolation-filters="sRGB">
      <feGaussianBlur
         stdDeviation="79.998724"
         id="feGaussianBlur10" />
    </filter>
    <filter
       id="filter958"
       x="-.024731"
       y="-.023311"
       width="1.0495"
       height="1.0466"
       color-interpolation-filters="sRGB">
      <feGaussianBlur
         stdDeviation="6.241461"
         id="feGaussianBlur13" />
    </filter>
    <filter
       id="filter1091"
       x="-.065059"
       y="-.071594"
       width="1.1301"
       height="1.1432"
       color-interpolation-filters="sRGB">
      <feGaussianBlur
         stdDeviation="0.22972166"
         id="feGaussianBlur16" />
    </filter>
    <filter
       id="filter1095"
       x="-.028503"
       y="-.04923"
       width="1.057"
       height="1.0985"
       color-interpolation-filters="sRGB">
      <feGaussianBlur
         stdDeviation="0.22972166"
         id="feGaussianBlur19" />
    </filter>
    <filter
       id="filter1099"
       x="-.026514"
       y="-.051351"
       width="1.053"
       height="1.1027"
       color-interpolation-filters="sRGB">
      <feGaussianBlur
         stdDeviation="0.22972166"
         id="feGaussianBlur22" />
    </filter>
    <filter
       id="filter1103"
       x="-.021284"
       y="-.021397"
       width="1.0426"
       height="1.0428"
       color-interpolation-filters="sRGB">
      <feGaussianBlur
         stdDeviation="0.22972166"
         id="feGaussianBlur25" />
    </filter>
    <filter
       id="filter1107"
       x="-.015223"
       y="-.026657"
       width="1.0304"
       height="1.0533"
       color-interpolation-filters="sRGB">
      <feGaussianBlur
         stdDeviation="0.22972166"
         id="feGaussianBlur28" />
    </filter>
    <radialGradient
       id="radialGradient2671"
       cx="-380.79"
       cy="-208.65"
       r="335.18"
       gradientTransform="matrix(.8392 0 0 .8392 1040 496.72)"
       gradientUnits="userSpaceOnUse">
      <stop
         stop-color="#fff"
         stop-opacity=".72179"
         offset="0"
         id="stop31" />
      <stop
         stop-color="#fff"
         stop-opacity="0"
         offset="1"
         id="stop33" />
    </radialGradient>
    <filter
       id="filter2724"
       color-interpolation-filters="sRGB">
      <feGaussianBlur
         result="blur"
         stdDeviation="1 1"
         id="feGaussianBlur36" />
    </filter>
    <filter
       id="filter2728"
       color-interpolation-filters="sRGB">
      <feGaussianBlur
         result="blur"
         stdDeviation="1 1"
         id="feGaussianBlur39" />
    </filter>
  </defs>
  <title
     id="title44">12-bitcoin-cash-square-crop</title>
  <path
     transform="matrix(.04188 0 0 .04188 265.94 66.663)"
     d="m7525 15989c-349-23-745-74-1074-139-1411-279-2741-944-3806-1903-103-94-479-466-575-572-245-266-540-648-754-974-84-128-216-339-216-346 0-2-17-32-38-66-48-80-130-233-220-414-483-964-760-2009-832-3130-13-205-13-695 0-900 103-1610 645-3087 1600-4360 239-319 428-535 744-850 286-286 436-420 706-632 1606-1261 3672-1865 5705-1668 1734 169 3354 891 4645 2071 632 577 1156 1241 1589 2014 64 113 231 450 301 605 345 767 574 1625 659 2470 32 311 41 496 41 810 0 808-118 1588-356 2359-526 1697-1613 3186-3064 4197-1216 848-2616 1332-4135 1429-181 11-740 11-920-1z"
     fill="#6bbb1a"
     fill-opacity=".98431"
     filter="url(#filter4769)"
     id="path46" />
  <path
     transform="matrix(-.98992 -.17453 .16962 -.98 937.58 856.27)"
     d="m318.2 89.775c-21.239 0.01067-42.407 2.0028-63.217 5.8808-21.606 10.39-42.143 23.107-61.141 38.024-11.308 8.8785-17.589 14.491-29.566 26.469-13.234 13.192-21.149 22.238-31.158 35.598-39.995 53.313-62.694 115.17-67.008 182.6-0.54443 8.5854-0.54443 29.108 0 37.693 3.0154 46.947 14.616 90.712 34.844 131.08 3.7692 7.5803 7.2027 13.988 9.2129 17.338 0.87947 1.4239 1.5918 2.6799 1.5918 2.7637 0 0.2931 5.529 9.1296 9.0469 14.49 8.9623 13.653 21.316 29.651 31.576 40.791 4.0205 4.4393 19.768 20.018 24.082 23.955 44.602 40.163 100.3 68.015 159.39 79.699 13.778 2.7222 30.362 4.8571 44.979 5.8203 7.5384 0.5026 30.949 0.5017 38.529 0.0411 63.616-4.0624 122.25-24.332 173.17-59.846 3.4673-2.4159 6.8776-4.9051 10.244-7.4493 23.184-32.276 41.195-68.492 52.904-107.1 10.511-34.799 15.723-70.004 15.723-106.47 0-14.172-0.39735-22.522-1.8106-36.559-3.7538-38.139-13.867-76.864-29.104-111.48-3.0914-6.9959-10.467-22.206-13.293-27.307-19.122-34.889-42.263-64.858-70.174-90.9-57.014-53.259-128.56-85.847-205.13-93.475-11.223-1.1114-22.47-1.658-33.695-1.6523z"
     fill="#ececec"
     fill-opacity=".28704"
     filter="url(#filter958)"
     id="path48" />
  <g
     transform="matrix(.04188 0 0 .04188 265.94 66.663)"
     fill="#fff"
     id="g206">
    <path
       d="m7751 13046c-6-17-62-222-127-456-195-713-262-951-266-956-3-2-398 103-879 234s-875 238-877 237c-3-3-112-1041-112-1071 0-17 8-23 33-28 75-14 558-147 627-172 101-38 181-113 204-193 28-95 21-155-43-390-33-119-139-504-236-856s-239-867-315-1145-193-703-260-945-142-514-166-605c-25-91-57-185-72-210-44-77-110-138-190-177-67-34-84-38-171-41-134-6-233 16-734 162-81 23-120 30-122 22-7-20-247-901-249-910 0-4 87-33 194-62 107-30 499-138 870-241 371-102 678-189 682-192s-81-323-188-711-192-710-190-715c2-6 28-17 57-24 30-8 222-61 428-117 206-57 376-103 377-101 1 1 88 315 193 697 106 382 194 696 196 698s137-35 302-83c164-48 318-92 343-100 35-10 44-17 42-31-2-11-87-320-188-689-101-368-184-674-184-680 0-9 858-250 865-243 2 2 91 322 198 711s196 710 199 712c2 3 42-2 89-10 416-74 899-94 1184-51 672 104 1078 440 1283 1061 196 592 97 1085-302 1499l-73 76h118c828 0 1344 393 1564 1190 130 470 135 910 15 1273-41 126-137 313-218 427-145 205-419 444-699 612-277 166-754 378-1083 483-30 10-58 20-62 24-4 3 71 290 166 636 96 347 185 671 198 721l25 91-426 117c-234 64-431 116-436 116-6 0-98-318-204-707-107-390-195-709-196-710-1-2-143 35-316 81s-329 87-346 91c-18 3-33 12-33 18 0 11 16 68 259 952 71 259 128 471 126 473-1 1-196 56-433 121l-431 118zm442-2762c928-243 1429-470 1733-785 93-98 132-151 179-252 54-113 70-186 69-317 0-211-79-419-214-563-317-339-883-384-1824-143-226 58-696 197-696 207 0 4 117 433 260 953s260 948 260 951c0 10 22 5 233-51zm-802-2789c657-172 1015-321 1295-540 97-76 161-145 225-243 60-91 87-161 107-277 19-113 7-234-39-369-102-305-310-473-660-532-82-13-140-16-298-11-227 6-400 32-681 103-171 42-609 170-618 179-4 4 126 484 431 1588 24 87 46 147 53 147 6 0 90-20 185-45z"
       fill="#fff"
       id="path204" />
  </g>
  <circle
     cx="720.41"
     cy="321.62"
     r="281.29"
     fill="url(#radialGradient2671)"
     stroke-dashoffset="7.35"
     stroke-linejoin="round"
     stroke-width="4.3295"
     style="mix-blend-mode:color-dodge"
     id="circle208" />
  <g
     transform="matrix(7.4778 -1.3248 -.17615 -7.6153 449.71 579.86)"
     id="g292">
    <g
       transform="matrix(1.0089 -.07805 .078526 .98513 22.222 1.6101)"
       id="g234">
      <g
         transform="translate(7.0688 12.432)"
         id="g212">
        <path
           d="m0 0 8 7 16-1 1-16-7-8s0 5.999-6 12c-6.001 6.001-12 6-12 6"
           fill="#315bfa"
           id="path210" />
      </g>
      <g
         transform="translate(7.041 -5.5682)"
         id="g216">
        <path
           d="m0 0s-0.036 7.979 2.985 11 11.042 2.813 11.042 2.813-1e-3 -7.813-3.001-10.813-11.026-3-11.026-3"
           fill="#ffacd8"
           id="path214" />
      </g>
      <g
         transform="translate(11.067 2.4318)"
         id="g220">
        <path
           d="m0 0c0 2.209 1.791 4 4 4s4-1.791 4-4-1.791-4-4-4-4 1.791-4 4"
           fill="#ffccd0"
           id="path218" />
      </g>
      <g
         transform="translate(42.067 29.432)"
         fill="#e7e5e0"
         id="g224">
        <path
           d="m0 0s-10 0-22-10c-6-5-6-14-4-16s11-2 16 4c10 12 10 22 10 22"
           fill="#e7e5e0"
           id="path222" />
      </g>
      <g
         transform="translate(33.067 24.432)"
         fill="#010a2e"
         fill-opacity=".86598"
         id="g228">
        <path
           d="m0 0c-1.623 0-3.013-0.971-3.641-2.36 0.502 0.227 1.055 0.36 1.641 0.36 2.209 0 4-1.791 4-4 0-0.586-0.133-1.139-0.359-1.64 1.388 0.627 2.359 2.017 2.359 3.64 0 2.209-1.791 4-4 4"
           fill="#010a2e"
           fill-opacity=".86598"
           id="path226" />
      </g>
      <g
         transform="translate(14.068 1.4318)"
         id="g232">
        <path
           d="m0 0s0 4 1 5 13.001 10.999 14 10-9.001-13-10.001-14-4.999-1-4.999-1"
           fill="#00f"
           id="path230" />
      </g>
    </g>
    <g
       transform="matrix(-.35159 .15448 -.15542 -.3046 -38.758 18.344)"
       id="g290">
      <g
         transform="translate(-57.439 37.433)"
         filter="url(#filter1103)"
         id="g238">
        <path
           d="m0 0 8 7 16-1 1-16-7-8s0 5.999-6 12c-6.001 6.001-12 6-12 6"
           fill="#4667e5"
           fill-opacity=".87113"
           id="path236" />
      </g>
      <g
         transform="translate(-57.467 19.433)"
         filter="url(#filter1095)"
         id="g242">
        <path
           d="m0 0s-0.036 7.979 2.985 11 11.042 2.813 11.042 2.813-1e-3 -7.813-3.001-10.813-11.026-3-11.026-3"
           fill="#ffb2c5"
           fill-opacity=".80928"
           id="path240" />
      </g>
      <path
         d="m-53.441 27.433c0 2.209 1.791 4 4 4s4-1.791 4-4c0-2.209-1.791-4-4-4s-4 1.791-4 4"
         fill="#ffcced"
         filter="url(#filter1091)"
         id="path244" />
      <ellipse
         transform="matrix(-1.8625 4.4222 .95112 .33209 197.9 -946.87)"
         cx="192.74"
         cy="-73.452"
         rx="8.4858"
         ry="1.1254"
         fill="#fff5ed"
         fill-opacity=".91509"
         filter="url(#filter4593)"
         stroke-width=".21444"
         id="ellipse246" />
      <ellipse
         transform="matrix(-.96262 -.27085 -.38513 .92286 -71.81 -1.3093)"
         cx="193.57"
         cy="-73.403"
         rx=".73903"
         ry="1.1254"
         fill="#fff"
         filter="url(#filter4633)"
         stroke-width=".063284"
         id="ellipse248" />
      <g
         fill="#ffb2a5"
         id="g256">
        <path
           transform="matrix(-.31924 -.23065 -.30019 .37904 44.215 -123.74)"
           d="m165.28 195.33-22.369 19.549-50.118 29.206-28.114-9.5974-50.352-28.801-5.7453-29.146-0.23385-58.007 22.369-19.549 50.118-29.206 28.114 9.5974 50.352 28.801 5.7453 29.146z"
           fill-opacity=".39623"
           id="path250" />
        <path
           transform="matrix(-.11625 -.083995 -.093603 .11819 -222.75 -37.876)"
           d="m156.93 125.55-22.369 19.549-50.118 29.206-28.114-9.5974-50.352-28.801-5.7453-29.146-0.23385-58.007 22.369-19.549 50.118-29.206 28.114 9.5974 50.352 28.801 5.7453 29.146z"
           fill-opacity=".54245"
           id="path252" />
        <path
           transform="matrix(-.083349 -.060221 -.077478 .097829 -132.11 -61.589)"
           d="m156.93 125.55-22.369 19.549-50.118 29.206-28.114-9.5974-50.352-28.801-5.7453-29.146-0.23385-58.007 22.369-19.549 50.118-29.206 28.114 9.5974 50.352 28.801 5.7453 29.146z"
           fill-opacity=".57547"
           id="path254" />
      </g>
      <g
         transform="translate(-22.441 54.433)"
         fill="#b9b6a7"
         filter="url(#filter1107)"
         id="g260">
        <path
           d="m0 0s-10 0-22-10c-6-5-6-14-4-16s11-2 16 4c10 12 10 22 10 22"
           fill="#b9b6a7"
           id="path258" />
      </g>
      <g
         transform="translate(-50.44 26.433)"
         filter="url(#filter1099)"
         id="g264">
        <path
           d="m0 0s0 4 1 5 13.001 10.999 14 10-9.001-13-10.001-14-4.999-1-4.999-1"
           fill="#5e7ced"
           id="path262" />
      </g>
      <g
         fill="#efffc8"
         fill-opacity=".29717"
         id="g272">
        <path
           transform="matrix(-.22296 -.062736 -.10009 .23983 -11.506 -197.13)"
           d="m165.28 195.33-22.369 19.549-50.118 29.206-28.114-9.5974-50.352-28.801-5.7453-29.146-0.23385-58.007 22.369-19.549 50.118-29.206 28.114 9.5974 50.352 28.801 5.7453 29.146z"
           id="path266" />
        <path
           transform="matrix(-.081195 -.022846 -.031208 .074782 -239.3 -122.11)"
           d="m156.93 125.55-22.369 19.549-50.118 29.206-28.114-9.5974-50.352-28.801-5.7453-29.146-0.23385-58.007 22.369-19.549 50.118-29.206 28.114 9.5974 50.352 28.801 5.7453 29.146z"
           id="path268" />
        <path
           transform="matrix(-.058213 -.016379 -.025832 .061899 -192.32 -133.26)"
           d="m156.93 125.55-22.369 19.549-50.118 29.206-28.114-9.5974-50.352-28.801-5.7453-29.146-0.23385-58.007 22.369-19.549 50.118-29.206 28.114 9.5974 50.352 28.801 5.7453 29.146z"
           id="path270" />
      </g>
      <path
         transform="matrix(-.31924 -.23065 -.30019 .37904 -263.49 -52.825)"
         d="m165.28 195.33-22.369 19.549-50.118 29.206-28.114-9.5974-50.352-28.801-5.7453-29.146-0.23385-58.007 22.369-19.549 50.118-29.206 28.114 9.5974 50.352 28.801 5.7453 29.146z"
         fill="#ffb2a5"
         fill-opacity=".39623"
         id="path274" />
      <g
         fill="#efffc8"
         fill-opacity=".29717"
         id="g284">
        <path
           transform="matrix(-.14411 -.04055 -.057595 .13801 -120.75 -161.27)"
           d="m165.28 195.33-22.369 19.549-50.118 29.206-28.114-9.5974-50.352-28.801-5.7453-29.146-0.23385-58.007 22.369-19.549 50.118-29.206 28.114 9.5974 50.352 28.801 5.7453 29.146z"
           id="path276" />
        <path
           transform="matrix(-.14411 -.04055 -.057595 .13801 -131.28 -157.68)"
           d="m165.28 195.33-22.369 19.549-50.118 29.206-28.114-9.5974-50.352-28.801-5.7453-29.146-0.23385-58.007 22.369-19.549 50.118-29.206 28.114 9.5974 50.352 28.801 5.7453 29.146z"
           id="path278" />
        <path
           transform="matrix(-.14411 -.04055 -.057595 .13801 -277.04 -123.04)"
           d="m165.28 195.33-22.369 19.549-50.118 29.206-28.114-9.5974-50.352-28.801-5.7453-29.146-0.23385-58.007 22.369-19.549 50.118-29.206 28.114 9.5974 50.352 28.801 5.7453 29.146z"
           id="path280" />
        <path
           transform="matrix(-.14411 -.04055 -.057595 .13801 -290.56 -120.92)"
           d="m165.28 195.33-22.369 19.549-50.118 29.206-28.114-9.5974-50.352-28.801-5.7453-29.146-0.23385-58.007 22.369-19.549 50.118-29.206 28.114 9.5974 50.352 28.801 5.7453 29.146z"
           id="path282" />
      </g>
      <path
         transform="matrix(-.11625 -.083995 -.093603 .11819 -234.7 -35.739)"
         d="m156.93 125.55-22.369 19.549-50.118 29.206-28.114-9.5974-50.352-28.801-5.7453-29.146-0.23385-58.007 22.369-19.549 50.118-29.206 28.114 9.5974 50.352 28.801 5.7453 29.146z"
         fill="#ffb2a5"
         fill-opacity=".54245"
         id="path286" />
      <path
         transform="matrix(-.11625 -.083995 -.093603 .11819 -118.43 -65.894)"
         d="m156.93 125.55-22.369 19.549-50.118 29.206-28.114-9.5974-50.352-28.801-5.7453-29.146-0.23385-58.007 22.369-19.549 50.118-29.206 28.114 9.5974 50.352 28.801 5.7453 29.146z"
         fill="#ffb2a5"
         fill-opacity=".54245"
         id="path288" />
    </g>
  </g>
  <circle
     cx="188.99"
     cy="629.54"
     r="7.9163"
     fill="#fff"
     filter="url(#filter2728)"
     stroke="#000"
     stroke-dashoffset="7.35"
     stroke-linejoin="round"
     stroke-opacity=".72157"
     stroke-width="1.5911"
     id="circle294" />
</svg>
