<svg xmlns="http://www.w3.org/2000/svg" version="1.1" xmlns:xlink="http://www.w3.org/1999/xlink" xmlns:svgjs="http://svgjs.dev/svgjs" width="1048" height="1048"><svg xmlns:dc="http://purl.org/dc/elements/1.1/" xmlns:cc="http://creativecommons.org/ns#" xmlns:rdf="http://www.w3.org/1999/02/22-rdf-syntax-ns#" xmlns:svg="http://www.w3.org/2000/svg" xmlns="http://www.w3.org/2000/svg" xmlns:sodipodi="http://sodipodi.sourceforge.net/DTD/sodipodi-0.dtd" xmlns:inkscape="http://www.inkscape.org/namespaces/inkscape" width="1048" height="1048" data-name="Layer 1" version="1.1" viewBox="0 0 1048 1048" id="SvgjsSvg1624" sodipodi:docname="awesome-bitcoin-cash.dark.svg" inkscape:version="1.0.2 (e86c870879, 2021-01-15)" inkscape:export-filename="/home/amnesia/projects/awesome-bitcoin-cash/assets/awesome-bitcoin-cash.banner.png" inkscape:export-xdpi="96" inkscape:export-ydpi="96">
  <metadata id="SvgjsMetadata1623">
    <rdf:rdf>
      <cc:work rdf:about="">
        <dc:format>image/svg+xml</dc:format>
        <dc:type rdf:resource="http://purl.org/dc/dcmitype/StillImage"></dc:type>
        <dc:title>12-bitcoin-cash-square-crop</dc:title>
      </cc:work>
    </rdf:rdf>
  </metadata>
  <sodipodi:namedview pagecolor="#ffffff" bordercolor="#666666" borderopacity="1" objecttolerance="10" gridtolerance="10" guidetolerance="10" inkscape:pageopacity="0" inkscape:pageshadow="2" inkscape:window-width="1920" inkscape:window-height="1176" id="SvgjsSodipodi:namedview1622" showgrid="false" inkscape:zoom="0.46313828" inkscape:cx="480.6524" inkscape:cy="589.78185" inkscape:window-x="0" inkscape:window-y="0" inkscape:window-maximized="1" inkscape:current-layer="svg298" inkscape:document-rotation="0" fit-margin-top="0" fit-margin-left="0" fit-margin-right="0" fit-margin-bottom="0"></sodipodi:namedview>
  <defs id="SvgjsDefs1621">
    <style id="SvgjsStyle1620">.cls-1{fill:#f7941d}.cls-2{fill:#fff}</style>
    <filter id="SvgjsFilter1619" x="-0.060580999" y="-0.45677999" width="1.1212" height="1.9136" color-interpolation-filters="sRGB">
      <feGaussianBlur stdDeviation="0.42839727" id="SvgjsFeGaussianBlur1618"></feGaussianBlur>
    </filter>
    <filter id="SvgjsFilter1617" x="-0.13507" y="-0.088696003" width="1.2701" height="1.1774" color-interpolation-filters="sRGB">
      <feGaussianBlur stdDeviation="0.083185004" id="SvgjsFeGaussianBlur1616"></feGaussianBlur>
    </filter>
    <filter id="SvgjsFilter1615" x="-0.012" y="-0.012" width="1.024" height="1.024" color-interpolation-filters="sRGB">
      <feGaussianBlur stdDeviation="79.998724" id="SvgjsFeGaussianBlur1614"></feGaussianBlur>
    </filter>
    <filter id="SvgjsFilter1613" x="-0.025069183" y="-0.022758834" width="1.0501384" height="1.0455177" color-interpolation-filters="sRGB">
      <feGaussianBlur stdDeviation="6.2414607" id="SvgjsFeGaussianBlur1612"></feGaussianBlur>
    </filter>
    <filter id="SvgjsFilter1611" x="-0.065058999" y="-0.071594" width="1.1301" height="1.1432" color-interpolation-filters="sRGB">
      <feGaussianBlur stdDeviation="0.22972166" id="SvgjsFeGaussianBlur1610"></feGaussianBlur>
    </filter>
    <filter id="SvgjsFilter1609" x="-0.028503001" y="-0.049229998" width="1.057" height="1.0985" color-interpolation-filters="sRGB">
      <feGaussianBlur stdDeviation="0.22972166" id="SvgjsFeGaussianBlur1608"></feGaussianBlur>
    </filter>
    <filter id="SvgjsFilter1607" x="-0.026513999" y="-0.051351" width="1.053" height="1.1027" color-interpolation-filters="sRGB">
      <feGaussianBlur stdDeviation="0.22972166" id="SvgjsFeGaussianBlur1606"></feGaussianBlur>
    </filter>
    <filter id="SvgjsFilter1605" x="-0.021283999" y="-0.021397" width="1.0426" height="1.0427999" color-interpolation-filters="sRGB">
      <feGaussianBlur stdDeviation="0.22972166" id="SvgjsFeGaussianBlur1604"></feGaussianBlur>
    </filter>
    <filter id="SvgjsFilter1603" x="-0.015223" y="-0.026657" width="1.0304" height="1.0533" color-interpolation-filters="sRGB">
      <feGaussianBlur stdDeviation="0.22972166" id="SvgjsFeGaussianBlur1602"></feGaussianBlur>
    </filter>
    <radialGradient id="SvgjsRadialGradient1601" cx="-380.79001" cy="-208.64999" r="335.17999" gradientTransform="matrix(0.8392,0,0,0.83920002,1040,496.72001)" gradientUnits="userSpaceOnUse">
      <stop stop-color="#fff" stop-opacity=".72179" offset="0" id="SvgjsStop1600"></stop>
      <stop stop-color="#fff" stop-opacity="0" offset="1" id="SvgjsStop1599"></stop>
    </radialGradient>
    <filter id="SvgjsFilter1598" color-interpolation-filters="sRGB">
      <feGaussianBlur result="blur" stdDeviation="1 1" id="SvgjsFeGaussianBlur1597"></feGaussianBlur>
    </filter>
    <filter id="SvgjsFilter1596" color-interpolation-filters="sRGB">
      <feGaussianBlur result="blur" stdDeviation="1 1" id="SvgjsFeGaussianBlur1595"></feGaussianBlur>
    </filter>
  </defs>
  <title id="SvgjsTitle1594">12-bitcoin-cash-square-crop</title>
  <path transform="matrix(0.05690786,0,0,0.05690344,63.548425,65.119198)" d="m 7525,15989 c -349,-23 -745,-74 -1074,-139 -1411,-279 -2741,-944 -3806,-1903 -103,-94 -479,-466 -575,-572 -245,-266 -540,-648 -754,-974 -84,-128 -216,-339 -216,-346 0,-2 -17,-32 -38,-66 -48,-80 -130,-233 -220,-414 C 359,10611 82,9566 10,8445 -3,8240 -3,7750 10,7545 113,5935 655,4458 1610,3185 c 239,-319 428,-535 744,-850 286,-286 436,-420 706,-632 C 4666,442 6732,-162 8765,35 c 1734,169 3354,891 4645,2071 632,577 1156,1241 1589,2014 64,113 231,450 301,605 345,767 574,1625 659,2470 32,311 41,496 41,810 0,808 -118,1588 -356,2359 -526,1697 -1613,3186 -3064,4197 -1216,848 -2616,1332 -4135,1429 -181,11 -740,11 -920,-1 z" fill="#6bbb1a" fill-opacity="0.98431" filter="url(#filter4769)" id="SvgjsPath1593" style="stroke-width:0.735955"></path>
  <path transform="matrix(-1.3552319,-0.23890576,0.23221514,-1.3414751,979.07554,1139.3455)" d="m 318.2,89.775 c -21.239,0.01067 -42.407,2.0028 -63.217,5.8808 -21.606,10.39 -42.143,23.107 -61.141,38.024 -11.308,8.8785 -17.589,14.491 -29.566,26.469 -13.234,13.192 -21.149,22.238 -31.158,35.598 -39.995,53.313 -62.694,115.17 -67.008,182.6 -0.54443,8.5854 -0.54443,29.108 0,37.693 3.0154,46.947 14.616,90.712 34.844,131.08 3.7692,7.5803 7.2027,13.988 9.2129,17.338 0.87947,1.4239 1.5918,2.6799 1.5918,2.7637 0,0.2931 5.529,9.1296 9.0469,14.49 8.9623,13.653 21.316,29.651 31.576,40.791 4.0205,4.4393 19.768,20.018 24.082,23.955 44.602,40.163 100.3,68.015 159.39,79.699 13.778,2.7222 30.362,4.8571 44.979,5.8203 7.5384,0.5026 30.949,0.5017 38.529,0.0411 63.616,-4.0624 122.25,-24.332 173.17,-59.846 3.4673,-2.4159 6.8776,-4.9051 10.244,-7.4493 23.184,-32.276 41.195,-68.492 52.904,-107.1 10.511,-34.799 15.723,-70.004 15.723,-106.47 0,-14.172 -0.39735,-22.522 -1.8106,-36.559 -3.7538,-38.139 -13.867,-76.864 -29.104,-111.48 -3.0914,-6.9959 -10.467,-22.206 -13.293,-27.307 -19.122,-34.889 -42.263,-64.858 -70.174,-90.9 -57.014,-53.259 -128.56,-85.847 -205.13,-93.475 -11.223,-1.1114 -22.47,-1.658 -33.695,-1.6523 z" fill="#ececec" fill-opacity="0.28704" filter="url(#filter958)" id="SvgjsPath1592" style="fill:#ececec;fill-opacity:0.354474;stroke-width:0.730491;filter:url(#filter958)"></path>
  <g transform="matrix(0.05690786,0,0,0.05690344,58.942935,69.836685)" fill="#fff" id="SvgjsG1591" style="fill:#ffffff;fill-opacity:0.95046;stroke-width:0.735955">
    <path d="m 7751,13046 c -6,-17 -62,-222 -127,-456 -195,-713 -262,-951 -266,-956 -3,-2 -398,103 -879,234 -481,131 -875,238 -877,237 -3,-3 -112,-1041 -112,-1071 0,-17 8,-23 33,-28 75,-14 558,-147 627,-172 101,-38 181,-113 204,-193 28,-95 21,-155 -43,-390 -33,-119 -139,-504 -236,-856 -97,-352 -239,-867 -315,-1145 -76,-278 -193,-703 -260,-945 -67,-242 -142,-514 -166,-605 -25,-91 -57,-185 -72,-210 -44,-77 -110,-138 -190,-177 -67,-34 -84,-38 -171,-41 -134,-6 -233,16 -734,162 -81,23 -120,30 -122,22 -7,-20 -247,-901 -249,-910 0,-4 87,-33 194,-62 107,-30 499,-138 870,-241 371,-102 678,-189 682,-192 4,-3 -81,-323 -188,-711 -107,-388 -192,-710 -190,-715 2,-6 28,-17 57,-24 30,-8 222,-61 428,-117 206,-57 376,-103 377,-101 1,1 88,315 193,697 106,382 194,696 196,698 2,2 137,-35 302,-83 164,-48 318,-92 343,-100 35,-10 44,-17 42,-31 -2,-11 -87,-320 -188,-689 -101,-368 -184,-674 -184,-680 0,-9 858,-250 865,-243 2,2 91,322 198,711 107,389 196,710 199,712 2,3 42,-2 89,-10 416,-74 899,-94 1184,-51 672,104 1078,440 1283,1061 196,592 97,1085 -302,1499 l -73,76 h 118 c 828,0 1344,393 1564,1190 130,470 135,910 15,1273 -41,126 -137,313 -218,427 -145,205 -419,444 -699,612 -277,166 -754,378 -1083,483 -30,10 -58,20 -62,24 -4,3 71,290 166,636 96,347 185,671 198,721 l 25,91 -426,117 c -234,64 -431,116 -436,116 -6,0 -98,-318 -204,-707 -107,-390 -195,-709 -196,-710 -1,-2 -143,35 -316,81 -173,46 -329,87 -346,91 -18,3 -33,12 -33,18 0,11 16,68 259,952 71,259 128,471 126,473 -1,1 -196,56 -433,121 l -431,118 z m 442,-2762 c 928,-243 1429,-470 1733,-785 93,-98 132,-151 179,-252 54,-113 70,-186 69,-317 0,-211 -79,-419 -214,-563 -317,-339 -883,-384 -1824,-143 -226,58 -696,197 -696,207 0,4 117,433 260,953 143,520 260,948 260,951 0,10 22,5 233,-51 z M 7391,7495 c 657,-172 1015,-321 1295,-540 97,-76 161,-145 225,-243 60,-91 87,-161 107,-277 19,-113 7,-234 -39,-369 -102,-305 -310,-473 -660,-532 -82,-13 -140,-16 -298,-11 -227,6 -400,32 -681,103 -171,42 -609,170 -618,179 -4,4 126,484 431,1588 24,87 46,147 53,147 6,0 90,-20 185,-45 z" fill="#fff" id="SvgjsPath1590" style="fill:#ffffff;fill-opacity:0.95046;stroke-width:0.735955"></path>
  </g>
  <g transform="matrix(12.95902,-1.2724959,0.70927496,-13.040292,435.86317,702.76294)" id="SvgjsG1589" style="stroke-width:0.583254">
    <g transform="translate(7.0688,12.432)" id="SvgjsG1588" style="stroke-width:0.583254">
      <path d="m 0,0 8,7 16,-1 1,-16 -7,-8 c 0,0 0,5.999 -6,12 C 5.999,0.001 0,0 0,0" fill="#315bfa" id="SvgjsPath1587" style="stroke-width:0.462235"></path>
    </g>
    <g transform="translate(7.041,-5.5682)" id="SvgjsG1586" style="stroke-width:0.583254">
      <path d="m 0,0 c 0,0 -0.036,7.979 2.985,11 3.021,3.021 11.042,2.813 11.042,2.813 C 14.027,13.813 14.026,6 11.026,3 8.026,0 0,0 0,0" fill="#ffacd8" id="SvgjsPath1585" style="stroke-width:0.462235"></path>
    </g>
    <g transform="translate(11.067,2.4318)" id="SvgjsG1584" style="stroke-width:0.583254">
      <path d="M 0,0 C 0,2.209 1.791,4 4,4 6.209,4 8,2.209 8,0 8,-2.209 6.209,-4 4,-4 1.791,-4 0,-2.209 0,0" fill="#ffccd0" id="SvgjsPath1583" style="stroke-width:0.462235"></path>
    </g>
    <g transform="translate(42.067,29.432)" fill="#e7e5e0" id="SvgjsG1582" style="stroke-width:0.462235">
      <path d="m 0,0 c 0,0 -10,0 -22,-10 -6,-5 -6,-14 -4,-16 2,-2 11,-2 16,4 C 0,-10 0,0 0,0" fill="#e7e5e0" id="SvgjsPath1581" style="stroke-width:0.366327"></path>
    </g>
    <g transform="translate(33.067,24.432)" fill="#010a2e" fill-opacity="0.86598" id="SvgjsG1580" style="stroke-width:0.462235">
      <path d="M 0,0 C -1.623,0 -3.013,-0.971 -3.641,-2.36 -3.139,-2.133 -2.586,-2 -2,-2 0.209,-2 2,-3.791 2,-6 2,-6.586 1.867,-7.139 1.641,-7.64 3.029,-7.013 4,-5.623 4,-4 4,-1.791 2.209,0 0,0" fill="#010a2e" fill-opacity="0.86598" id="SvgjsPath1579" style="stroke-width:0.366327"></path>
    </g>
    <g transform="translate(14.068,1.4318)" id="SvgjsG1578" style="stroke-width:0.583254">
      <path d="M 0,0 C 0,0 0,4 1,5 2,6 14.001,15.999 15,15 15.999,14.001 5.999,2 4.999,1 3.999,0 0,0 0,0" fill="#0000ff" id="SvgjsPath1577" style="stroke-width:0.462235"></path>
    </g>
  </g>
  <g fill="#ffb2a5" id="SvgjsG1576" transform="matrix(-2.3181156,-0.81233412,-2.609276,3.1168682,49.484035,672.67764)" style="stroke-width:0.895649">
    <path transform="matrix(-0.31924,-0.23065,-0.30019,0.37904,44.215,-123.74)" d="m 165.28,195.33 -22.369,19.549 -50.118,29.206 -28.114,-9.5974 -50.352,-28.801 -5.7453,-29.146 -0.23385,-58.007 22.369,-19.549 50.118,-29.206 28.114,9.5974 50.352,28.801 5.7453,29.146 z" fill-opacity="0.39623" id="SvgjsPath1575" style="stroke-width:0.895649"></path>
    <path transform="matrix(-0.11625,-0.083995,-0.093603,0.11819,-222.75,-37.876)" d="m 156.93,125.55 -22.369,19.549 -50.118,29.206 -28.114,-9.5974 -50.352,-28.801 -5.7453,-29.146 -0.23385,-58.007 22.369,-19.549 50.118,-29.206 28.114,9.5974 50.352,28.801 5.7453,29.146 z" fill-opacity="0.54245" id="SvgjsPath1574" style="stroke-width:0.895649"></path>
    <path transform="matrix(-0.083349,-0.060221,-0.077478,0.097829,-132.11,-61.589)" d="m 156.93,125.55 -22.369,19.549 -50.118,29.206 -28.114,-9.5974 -50.352,-28.801 -5.7453,-29.146 -0.23385,-58.007 22.369,-19.549 50.118,-29.206 28.114,9.5974 50.352,28.801 5.7453,29.146 z" fill-opacity="0.57547" id="SvgjsPath1573" style="stroke-width:0.895649"></path>
  </g>
  <g id="SvgjsG1572" transform="matrix(1.3588314,0,0,1.3587258,132.84066,-25.759131)" style="stroke-width:0.735955">
    <g transform="matrix(-0.47388915,-2.9534591,-3.0001214,0.02066517,9.7290151,175.05053)" filter="url(#filter1103)" id="SvgjsG1571" style="stroke-width:0.621947">
      <path d="m 0,0 8,7 16,-1 1,-16 -7,-8 c 0,0 0,5.999 -6,12 C 5.999,0.001 0,0 0,0" fill="#4667e5" fill-opacity="0.87113" id="SvgjsPath1570" style="stroke-width:0.571748"></path>
    </g>
    <g transform="matrix(-0.47388915,-2.9534591,-3.0001214,0.02066517,63.744472,174.76125)" filter="url(#filter1095)" id="SvgjsG1569" style="stroke-width:0.621947">
      <path d="m 0,0 c 0,0 -0.036,7.979 2.985,11 3.021,3.021 11.042,2.813 11.042,2.813 C 14.027,13.813 14.026,6 11.026,3 8.026,0 0,0 0,0" fill="#ffb2c5" fill-opacity="0.80928" id="SvgjsPath1568" style="stroke-width:0.571748"></path>
    </g>
    <path d="m -76.957109,35.070562 c 0,2.209 1.791,4 4,4 2.209,0 4,-1.791 4,-4 0,-2.209 -1.791,-4 -4,-4 -2.209,0 -4,1.791 -4,4" fill="#ffcced" filter="url(#filter1091)" id="SvgjsPath1567" transform="matrix(-0.47388915,-2.9534591,-3.0001214,0.02066517,106.58242,-64.97847)" style="stroke-width:0.621947"></path>
    <g transform="matrix(-0.47388915,-2.9534591,-3.0001214,0.02066517,-57.858214,72.036662)" fill="#b9b6a7" filter="url(#filter1107)" id="SvgjsG1566" style="stroke-width:0.621947">
      <path d="m 0,0 c 0,0 -10,0 -22,-10 -6,-5 -6,-14 -4,-16 2,-2 11,-2 16,4 C 0,-10 0,0 0,0" fill="#b9b6a7" id="SvgjsPath1565" style="stroke-width:0.571748"></path>
    </g>
    <g transform="matrix(-0.47388915,-2.9534591,-3.0001214,0.02066517,39.413602,154.15195)" filter="url(#filter1099)" id="SvgjsG1564" style="stroke-width:0.621947">
      <path d="M 0,0 C 0,0 0,4 1,5 2,6 14.001,15.999 15,15 15.999,14.001 5.999,2 4.999,1 3.999,0 0,0 0,0" fill="#5e7ced" id="SvgjsPath1563" style="stroke-width:0.571748"></path>
    </g>
  </g>
  <g fill="#efffc8" fill-opacity="0.29717" id="SvgjsG1562" transform="matrix(-2.3181156,-0.81233412,-2.609276,3.1168682,49.484035,672.67764)" style="stroke-width:0.895649">
    <path transform="matrix(-0.22296,-0.062736,-0.10009,0.23983,-11.506,-197.13)" d="m 165.28,195.33 -22.369,19.549 -50.118,29.206 -28.114,-9.5974 -50.352,-28.801 -5.7453,-29.146 -0.23385,-58.007 22.369,-19.549 50.118,-29.206 28.114,9.5974 50.352,28.801 5.7453,29.146 z" id="SvgjsPath1561" style="stroke-width:0.895649"></path>
    <path transform="matrix(-0.081195,-0.022846,-0.031208,0.074782,-239.3,-122.11)" d="m 156.93,125.55 -22.369,19.549 -50.118,29.206 -28.114,-9.5974 -50.352,-28.801 -5.7453,-29.146 -0.23385,-58.007 22.369,-19.549 50.118,-29.206 28.114,9.5974 50.352,28.801 5.7453,29.146 z" id="SvgjsPath1560" style="stroke-width:0.895649"></path>
    <path transform="matrix(-0.058213,-0.016379,-0.025832,0.061899,-192.32,-133.26)" d="m 156.93,125.55 -22.369,19.549 -50.118,29.206 -28.114,-9.5974 -50.352,-28.801 -5.7453,-29.146 -0.23385,-58.007 22.369,-19.549 50.118,-29.206 28.114,9.5974 50.352,28.801 5.7453,29.146 z" id="SvgjsPath1559" style="stroke-width:0.895649"></path>
  </g>
  <path d="m 962.64274,924.51063 -35.7469,38.14296 -75.8131,64.65961 -34.9119,-0.7584 -59.12258,-17.9088 0.83455,-38.90053 16.69066,-82.56831 35.74689,-38.14292 75.81308,-64.65951 34.9118,0.75839 59.1227,17.90867 -0.8346,38.90058 z" fill="#ffb2a5" fill-opacity="0.39623" id="SvgjsPath1558" style="stroke-width:1.19421"></path>
  <g fill="#efffc8" fill-opacity="0.29717" id="SvgjsG1557" transform="matrix(-2.3181156,-0.81233412,-2.609276,3.1168682,49.484035,672.67764)" style="stroke-width:0.895649">
    <path transform="matrix(-0.14411,-0.04055,-0.057595,0.13801,-120.75,-161.27)" d="m 165.28,195.33 -22.369,19.549 -50.118,29.206 -28.114,-9.5974 -50.352,-28.801 -5.7453,-29.146 -0.23385,-58.007 22.369,-19.549 50.118,-29.206 28.114,9.5974 50.352,28.801 5.7453,29.146 z" id="SvgjsPath1556" style="stroke-width:0.895649"></path>
    <path transform="matrix(-0.14411,-0.04055,-0.057595,0.13801,-131.28,-157.68)" d="m 165.28,195.33 -22.369,19.549 -50.118,29.206 -28.114,-9.5974 -50.352,-28.801 -5.7453,-29.146 -0.23385,-58.007 22.369,-19.549 50.118,-29.206 28.114,9.5974 50.352,28.801 5.7453,29.146 z" id="SvgjsPath1555" style="stroke-width:0.895649"></path>
    <path transform="matrix(-0.14411,-0.04055,-0.057595,0.13801,-277.04,-123.04)" d="m 165.28,195.33 -22.369,19.549 -50.118,29.206 -28.114,-9.5974 -50.352,-28.801 -5.7453,-29.146 -0.23385,-58.007 22.369,-19.549 50.118,-29.206 28.114,9.5974 50.352,28.801 5.7453,29.146 z" id="SvgjsPath1554" style="stroke-width:0.895649"></path>
    <path transform="matrix(-0.14411,-0.04055,-0.057595,0.13801,-290.56,-120.92)" d="m 165.28,195.33 -22.369,19.549 -50.118,29.206 -28.114,-9.5974 -50.352,-28.801 -5.7453,-29.146 -0.23385,-58.007 22.369,-19.549 50.118,-29.206 28.114,9.5974 50.352,28.801 5.7453,29.146 z" id="SvgjsPath1553" style="stroke-width:0.895649"></path>
  </g>
  <path d="m 752.00579,781.47056 -12.71744,12.43181 -27.15964,21.36787 -12.8606,0.44009 -21.97173,-4.37246 -0.14325,-11.99148 5.18802,-25.7403 12.71748,-12.43179 27.15969,-21.36784 12.86056,-0.44008 21.97171,4.37243 0.14326,11.99148 z" fill="#ffb2a5" fill-opacity="0.54245" id="SvgjsPath1552" style="stroke-width:0.40241"></path>
  <path d="m 561.16127,593.03135 -12.7175,12.43181 -27.15966,21.36784 -12.86055,0.44009 -21.97173,-4.37245 -0.14325,-11.99147 5.18802,-25.74032 12.71745,-12.4318 27.15965,-21.36785 12.86055,-0.44009 21.97178,4.37247 0.14321,11.99146 z" fill="#ffb2a5" fill-opacity="0.54245" id="SvgjsPath1551" style="stroke-width:0.40241"></path>
</svg><style>@media (prefers-color-scheme: light) { :root { filter: none; } }
@media (prefers-color-scheme: dark) { :root { filter: none; } }
</style></svg>